<svg xmlns="http://www.w3.org/2000/svg" viewBox="0 0 360 96" width="360" height="96">
  <defs>
    <linearGradient id="ig" x1="0" y1="0" x2="1" y2="1">
      <stop offset="0" stop-color="#818CF8"/>
      <stop offset="1" stop-color="#4F46E5"/>
    </linearGradient>
  </defs>
  <rect x="8" y="8" width="80" height="80" rx="20" fill="url(#ig)"/>
  <path d="M48 38 L23 30 L23 64 L48 72 Z" fill="#FFFFFF"/>
  <path d="M48 38 L73 30 L73 64 L48 72 Z" fill="#FFFFFF"/>
  <path d="M30 42 L44 46 M30 50 L44 54 M52 46 L66 42 M52 54 L66 50" stroke="#C7D2FE" stroke-width="2.5" stroke-linecap="round"/>
  <path d="M48 16 L51 25 L60 28 L51 31 L48 40 L45 31 L36 28 L45 25 Z" fill="#FBBF24"/>
  <text x="104" y="58" font-family="-apple-system, Segoe UI, Roboto, sans-serif" font-size="40" font-weight="700" fill="#6366F1">Vidyora</text>
</svg>
